<svg xmlns="http://www.w3.org/2000/svg" xmlns:svg="http://www.w3.org/2000/svg" xmlns:xlink="http://www.w3.org/1999/xlink" id="svg7571" width="94" height="94" version="1.1"><defs id="defs7573"><radialGradient id="radialGradient7569" cx="605.938" cy="415.344" r="36.708" fx="605.938" fy="415.344" gradientTransform="matrix(0,2.029129,-1.1835273,-6.1765212e-6,838.27813,-1724.5888)" gradientUnits="userSpaceOnUse" xlink:href="#linearGradient4973-70"/><linearGradient id="linearGradient4973-70"><stop id="stop4975-9" offset="0" stop-color="#fff" stop-opacity=".356"/><stop id="stop4977-1" offset="1" stop-color="#fff" stop-opacity="0"/></linearGradient><filter id="filter5006-0" color-interpolation-filters="sRGB"><feGaussianBlur id="feGaussianBlur5008-2" stdDeviation=".632"/></filter><filter id="filter5026-0" color-interpolation-filters="sRGB"><feGaussianBlur id="feGaussianBlur5028-9" stdDeviation=".71"/></filter></defs><metadata id="metadata7576"/><g id="layer1" transform="translate(-327.79663,-484.59624)"><g id="g7553" transform="translate(-107.4625,884.20215)"><g id="g7555" transform="matrix(1.0187285,0,0,1.0187285,128.87586,133.00848)"><path id="path7557" fill="#003380" fill-opacity="1" stroke="none" d="m 389.23563,-447.01122 c -7.1549,12.39266 -27.53533,14.41238 -41.84514,14.41238 -14.3098,0 -34.69022,-2.01972 -41.84514,-14.41238 -7.1549,-12.39266 3.05224,-31.05248 10.20714,-43.44514 7.15491,-12.39266 17.3282,-29.03277 31.638,-29.03277 14.30981,0 24.48311,16.64011 31.63803,29.03277 7.1549,12.39266 17.36203,31.05248 10.20711,43.44514 z" display="inline"/><path id="path7559" fill="url(#radialGradient7569)" fill-opacity="1" stroke="none" d="m 389.23563,-446.73217 c -7.1549,12.39266 -27.53533,14.41238 -41.84514,14.41238 -14.3098,0 -34.69022,-2.01972 -41.84514,-14.41238 -7.1549,-12.39266 3.05224,-31.05248 10.20714,-43.44514 7.15491,-12.39266 17.3282,-29.03277 31.638,-29.03277 14.30981,0 24.48311,16.64011 31.63803,29.03277 7.1549,12.39266 17.36203,31.05248 10.20711,43.44514 z" display="inline"/><g id="g7561" transform="matrix(1.2062355,0,0,1.2062355,-376.13142,-1010.241)"><path id="path7563" fill="#c8deff" fill-opacity="1" stroke="none" d="m 599.57276,406.8458 c -11.86319,0 -20.28715,13.78867 -26.21875,24.0625 -4.68026,8.10645 -10.9515,19.46625 -10.46875,28.9375 0.37645,-9.03721 6.11016,-19.3882 10.46875,-26.9375 5.9316,-10.27383 14.35556,-24.0625 26.21875,-24.0625 11.86319,0 20.28715,13.78867 26.21875,24.0625 4.31356,7.4713 9.98753,17.6859 10.46875,26.65625 0.34707,-9.41382 -5.83469,-20.62982 -10.46875,-28.65625 -5.9316,-10.27383 -14.35556,-24.0625 -26.21875,-24.0625 z" display="inline" filter="url(#filter5006-0)" opacity=".2"/><path id="path7565" fill="#002b6b" fill-opacity="1" stroke="none" d="m 636.25,457.6875 c -0.11162,2.58978 -0.72299,5.03816 -2,7.25 -5.9316,10.27383 -22.82431,11.9375 -34.6875,11.9375 -11.86319,0 -28.7559,-1.66367 -34.6875,-11.9375 -1.25134,-2.16738 -1.87093,-4.56147 -2,-7.09375 -0.13586,3.26152 0.42699,6.36922 2,9.09375 5.9316,10.27383 22.82431,11.9375 34.6875,11.9375 11.86319,0 28.7559,-1.66367 34.6875,-11.9375 1.59806,-2.76792 2.16048,-5.93104 2,-9.25 z" display="inline" filter="url(#filter5026-0)"/></g></g><path id="path7567" fill="#fff" fill-opacity="1" stroke="none" d="m 479.07145,-375.86822 c -0.71445,15.84316 -0.61328,35.31454 1.70408,56.19203 l 0.76683,1.06505 c 0.27863,-8.87245 1.34405,-33.75094 4.68622,-57.25708 z m 12.05636,0 c -3.61085,11.89009 -5.9292,27.44223 -7.41274,58.62034 l 1.66147,-2.30051 c 2.13306,-10.73145 5.90739,-35.77212 10.39489,-44.09306 l 0,-6.00688 -0.0425,0 0,-2.51352 c 0,-2.04848 -1.63881,-3.70637 -3.66378,-3.70637 z m -17.93544,0.12774 c -1.53511,0.441 -2.68392,1.88273 -2.68392,3.57857 l 0,2.51351 -0.0425,0 0,20.87498 c 0,0 -9.29589,-1.97732 -10.43748,0 -1.1416,1.97732 17.97804,25.17777 17.97804,25.17777 -1.59322,-10.10152 -4.86782,-31.26841 -4.81403,-52.14483 z m 22.57906,12.951 c -1.40621,10.82469 -4.87645,29.35003 -7.83877,39.61985 0,0 19.24481,-23.64227 18.23365,-25.60372 -1.01116,-1.96145 -10.39488,0 -10.39488,0 z" opacity=".33"/></g></g></svg>